<svg width="269" height="87" viewBox="0 0 269 87" fill="none" xmlns="http://www.w3.org/2000/svg">
<path d="M62.4411 46.421C49.4997 46.421 38.9723 36.0095 38.9723 23.2105C38.9723 10.4115 49.4997 0 62.4411 0C75.3825 0 86.6671 9.71047 84.663 28.7147H51.4269C53.4652 32.6873 57.6357 35.4155 62.4383 35.4155C65.2053 35.4155 67.8187 34.5314 69.9936 32.8619L76.8173 41.5588C72.6724 44.7402 67.6991 46.421 62.4411 46.421ZM51.4269 17.7063H73.4496C71.4113 13.7337 67.2408 11.0056 62.4383 11.0056C57.6357 11.0084 53.4652 13.7366 51.4269 17.7063Z" fill="black"/>
<path d="M22.4553 38.5406C35.3967 38.5406 45.9241 48.9521 45.9241 61.7511C45.9241 74.5501 35.3967 84.9616 22.4553 84.9616C9.51388 84.9616 -1.77072 75.2511 0.233405 56.2469H33.4695C31.4312 52.2743 27.2607 49.5462 22.4582 49.5462C19.6911 49.5462 17.0778 50.4302 14.9028 52.0998L8.07911 43.4029C12.2212 40.2242 17.1945 38.5406 22.4553 38.5406ZM33.4666 67.2553H11.444C13.4823 71.2279 17.6528 73.956 22.4553 73.956C27.2578 73.956 31.4283 71.2279 33.4666 67.2553Z" fill="black"/>
<path d="M78.7047 79.0576H50.4476V68.0493H67.5738V51.1116H78.7047V79.0576Z" fill="#0F7BDE"/>
<path d="M16.3148 34.2921H5.18396V6.34601H33.441V17.3516H16.3148V34.2921Z" fill="#0F7BDE"/>
<path d="M183.993 20.4345C185.524 21.845 187.446 22.5601 189.7 22.5601C191.955 22.5601 193.877 21.845 195.408 20.4345C196.951 19.0155 197.734 17.2305 197.734 15.133C197.734 13.0355 196.951 11.2505 195.408 9.83152C193.877 8.42099 191.955 7.70868 189.7 7.70868C187.446 7.70868 185.524 8.4238 183.993 9.83152C182.45 11.2505 181.667 13.0355 181.667 15.133C181.667 17.2305 182.45 19.0155 183.993 20.4345ZM185.763 11.4701C186.831 10.4594 188.12 9.96666 189.703 9.96666C191.286 9.96666 192.576 10.4594 193.643 11.4701C194.705 12.4752 195.22 13.6746 195.22 15.1358C195.22 16.597 194.705 17.7936 193.643 18.8015C192.576 19.8123 191.286 20.305 189.703 20.305C188.12 20.305 186.831 19.8123 185.763 18.8015C184.701 17.7964 184.186 16.597 184.186 15.1358C184.186 13.6746 184.701 12.4752 185.763 11.4701Z" fill="black"/>
<path d="M185.322 42.3471H178.293V36.536H175.845V50.7427H178.293V44.6079H185.322V50.7427H187.77V36.536H185.322V42.3471Z" fill="black"/>
<path d="M174.541 10.2567H180.861V7.99585H172.096V22.2054H174.541V10.2567Z" fill="black"/>
<path d="M161.443 46.3112V36.536H158.995V50.7427H159.929L169.175 41.0323V50.7427H171.623V36.3136H170.963L161.443 46.3112Z" fill="black"/>
<path d="M244.065 36.536V50.7427H246.513V44.6079H253.545V50.7427H255.99V36.536H253.545V42.3471H246.513V36.536H244.065Z" fill="black"/>
<path d="M260.235 50.7427H262.68V38.794H269V36.536H260.235V50.7427Z" fill="black"/>
<path d="M229.663 46.2549V36.536H227.215V50.7427H228.698L237.395 41.0858V50.7427H239.843V36.3136H238.619L229.663 46.2549Z" fill="black"/>
<path d="M106.418 50.7427L115.664 41.0323V50.7427H118.11V36.3136H117.452L107.93 46.3112V36.536H105.484V50.7427H106.418Z" fill="black"/>
<path d="M134.26 50.7427V36.536H131.811V42.3471H124.78V36.536H122.334V50.7427H124.78V44.6079H131.811V50.7427H134.26Z" fill="black"/>
<path d="M149.698 43.3804L156.911 36.536H153.575L147.85 42.0881V36.536H145.405V42.0881L139.68 36.536H136.343L143.557 43.3804L135.78 50.7427H139.187L145.231 44.9317L145.405 45.0893V50.7427H147.85V45.0893L148.024 44.9317L154.067 50.7427H157.475L149.698 43.3804Z" fill="black"/>
<path d="M216.406 36.2432C214.379 36.2432 212.671 36.8485 211.31 38.0451V36.5332H208.862V58.4599H211.31V49.2984C211.692 49.6644 212.312 50.0417 213.201 50.4527C214.131 50.8807 215.188 51.0975 216.335 51.0975C218.604 51.0975 220.451 50.3627 221.823 48.9155C223.187 47.4768 223.879 45.6693 223.879 43.5408C223.879 41.4518 223.19 39.6949 221.835 38.321C220.474 36.9414 218.649 36.2432 216.406 36.2432ZM220.019 47.367C219.13 48.3581 217.915 48.8395 216.301 48.8395C214.689 48.8395 213.474 48.3524 212.586 47.3529C211.68 46.3309 211.242 45.064 211.242 43.4789C211.242 41.8966 211.729 40.7029 212.734 39.8301C213.756 38.9376 214.934 38.5068 216.338 38.5068C217.758 38.5068 218.931 38.9432 219.916 39.8385C220.89 40.7254 221.362 41.936 221.362 43.5436C221.362 45.1062 220.921 46.3563 220.019 47.367Z" fill="black"/>
<path d="M124.091 64.7805C122.064 64.7805 120.356 65.3858 118.995 66.5824V65.0705H116.547V86.9972H118.995V77.8357C119.377 78.2017 119.997 78.579 120.885 78.9901C121.816 79.418 122.872 79.6348 124.02 79.6348C126.289 79.6348 128.136 78.9 129.508 77.4528C130.872 76.0141 131.564 74.2066 131.564 72.0781C131.564 69.9891 130.875 68.2323 129.52 66.8583C128.159 65.4816 126.331 64.7805 124.091 64.7805ZM127.701 75.9043C126.812 76.8954 125.597 77.3768 123.983 77.3768C122.371 77.3768 121.156 76.8897 120.268 75.8902C119.362 74.8682 118.924 73.6013 118.924 72.0162C118.924 70.4339 119.411 69.2402 120.416 68.3674C121.438 67.4749 122.616 67.0441 124.02 67.0441C125.44 67.0441 126.613 67.4805 127.598 68.3758C128.572 69.2627 129.044 70.4733 129.044 72.081C129.044 73.6435 128.606 74.8936 127.701 75.9043Z" fill="black"/>
<path d="M150.136 79.2801H152.581V67.3313H160.433V79.2801H162.881V65.0733H150.136V79.2801Z" fill="black"/>
<path d="M140.437 76.1071L134.786 65.0733H132.005L139.082 78.9985L135.336 87H138.103L148.123 65.0733H145.359L140.437 76.1071Z" fill="black"/>
<path d="M156.131 20.7611C156.513 21.1271 157.133 21.5044 158.022 21.9154C158.952 22.3434 160.009 22.5601 161.156 22.5601C163.425 22.5601 165.272 21.8253 166.644 20.3782C168.008 18.9395 168.7 17.132 168.7 15.0035C168.7 12.9144 168.011 11.1576 166.656 9.78367C165.295 8.4041 163.47 7.70587 161.227 7.70587C159.2 7.70587 157.492 8.31119 156.131 9.50775V7.99586H153.683V29.9225H156.131V20.7611ZM157.552 11.2899C158.574 10.3974 159.752 9.96667 161.156 9.96667C162.576 9.96667 163.749 10.4031 164.734 11.2984C165.708 12.1852 166.18 13.3959 166.18 15.0035C166.18 16.5661 165.742 17.8189 164.837 18.8269C163.949 19.8179 162.733 20.2993 161.119 20.2993C159.508 20.2993 158.292 19.8123 157.404 18.8128C156.499 17.7908 156.06 16.5238 156.06 14.9387C156.06 13.3565 156.547 12.1627 157.552 11.2899Z" fill="black"/>
<path d="M167.123 79.2801H169.571V67.3313H177.422V79.2801H179.868V65.0733H167.123V79.2801Z" fill="black"/>
<path d="M194.46 36.536H192.015V50.7427H192.949L202.195 41.0323V50.7427H202.65H204.64V35.6182L194.46 46.3112V36.536Z" fill="black"/>
<path d="M122.69 16.0677H129.722V22.2054H132.17V7.99585H129.722V13.8097H122.69V7.99585H120.245V22.2054H122.69V16.0677Z" fill="black"/>
<path d="M143.201 22.5601C144.895 22.5601 146.318 22.1632 147.434 21.3833C148.522 20.6203 149.365 19.7222 149.94 18.7114L150.199 18.2553L148.072 17.1038L147.827 17.5768C147.403 18.3933 146.791 19.0605 146.008 19.5589C145.231 20.0516 144.323 20.3022 143.307 20.3022C141.838 20.3022 140.608 19.8348 139.552 18.8719C138.632 18.0357 138.165 17.0222 138.131 15.7777H150.372L150.389 15.2794C150.463 13.0749 149.789 11.2421 148.38 9.82871C146.973 8.42099 145.194 7.70587 143.093 7.70587C141.072 7.70587 139.307 8.37032 137.846 9.6795C136.369 11.0028 135.623 12.8469 135.623 15.164C135.623 17.2727 136.309 19.0493 137.664 20.4457C139.022 21.8478 140.887 22.5601 143.201 22.5601ZM139.828 11.1407C140.719 10.3496 141.789 9.96386 143.096 9.96386C144.377 9.96386 145.43 10.3439 146.31 11.1238C147.047 11.777 147.528 12.5653 147.765 13.5169H138.356C138.598 12.585 139.082 11.8023 139.828 11.1407Z" fill="black"/>
<path d="M108.673 22.5601C111.064 22.5601 113.037 21.8844 114.531 20.5555C116.066 19.1901 116.846 17.3431 116.846 15.0683C116.846 12.7202 115.978 10.8338 114.267 9.46834C112.821 8.29711 110.902 7.70587 108.565 7.70587C107.272 7.70587 105.997 7.92266 104.776 8.34779L104.428 8.46886V10.9521L105.18 10.5889C106.04 10.175 107.178 9.96386 108.567 9.96386C109.999 9.96386 111.226 10.2933 112.203 10.938C113.293 11.6869 113.962 12.6301 114.235 13.8097H105.94V16.0677H114.281C114.13 17.1376 113.689 18.016 112.937 18.7396C111.884 19.7897 110.489 20.2993 108.673 20.2993C107.244 20.2993 106.022 20.046 105.052 19.5504L104.292 19.1619V21.6986L104.596 21.8366C105.667 22.3152 107.039 22.5601 108.673 22.5601Z" fill="black"/>
<path d="M105.484 79.2801H107.93V67.3313H114.25V65.0733H105.484V79.2801Z" fill="black"/>
</svg>
